<?xml version="1.0" encoding="utf-8"?>
<!-- Generator: Adobe Illustrator 19.0.0, SVG Export Plug-In . SVG Version: 6.00 Build 0)  -->
<svg version="1.0" id="Layer_1" xmlns="http://www.w3.org/2000/svg" xmlns:xlink="http://www.w3.org/1999/xlink" x="0px" y="0px"
	 viewBox="0 0 65.2 41.5" style="enable-background:new 0 0 65.2 41.5;" xml:space="preserve">
<style type="text/css">
	.st0{fill:#1D1D1B;}
</style>
<g id="XMLID_132_">
	<g id="HATCH_33_">
		<path id="XMLID_134_" class="st0" d="M35.1,25.7c0.4-1,0.7-2.2,0.7-2.3c0,0-0.7,0.3-0.7,0.3c-1.8,0.8-3.5,1.2-5.4,1.4
			c0.3-4.7,1.1-9.2,2.8-13.7c0.5-1.4-2.4-0.7-2.8,0.4c-1.6,4.3-2.4,8.8-2.8,13.3c0,0-0.1,0-0.1,0c-1.4-0.1-2.7-0.4-4.1-0.8
			c0.4-2.6,0.7-5.3,1-7.9c0.1-1.7-2.9-1.8-3.1-0.3c-0.2,2.4-0.5,4.8-0.9,7.3c-0.5-0.2-0.9-0.3-1.4-0.5c-2.6-0.9-5.2-1.3-7.6-0.1
			c-1.2,0.6-2.2,1.6-3.3,2.7c-0.9,0.8-2.6,2.4-3.7,1.1c-0.5-0.6-1.6-1-0.5,0.2c2.4,2.8,4.4,1.6,6.4-0.4c2.6-2.6,5.5-3.1,8.7-2.3
			c0.4,0.1,0.8,0.2,1.2,0.4c-0.4,2.3-0.8,4.6-1.3,6.9c-0.4,1.7,2.7,1.8,3.1,0.3c0.4-2.1,0.8-4.1,1.2-6.2c1.4,0.5,2.9,0.9,4.3,1.1
			c-0.2,4-0.2,8-0.1,12c0,1.3,2.9,0.3,2.9-0.9c-0.1-3.7-0.1-7.3,0-11C31.6,26.6,33.7,26.1,35.1,25.7z"/>
	</g>
	<g id="HATCH_32_">
		<path id="XMLID_133_" class="st0" d="M57.8,28.7c-4.8-1.5-7.2-6.1-11.2-8.8c4.7-4.2,9.5-11.7,12-17.1c-0.7,0.4-1.5,0.7-2.6,0.7
			c-0.1,0-0.2,0-0.3,0c-2.4,4.8-7,11.7-11.3,15.3c-0.9-0.3-1.9-0.4-2.9-0.1c-0.3,0.1-0.6,0.3-0.9,0.5c0.6-3.5,1.1-7.1,1.6-10.6
			c0-0.3-3.1-0.7-3.1-0.1c-1.4,10-3.1,19.9-5.3,29.8c-0.1,0.3,3,0.7,3.1,0.1c1-4.6,1.9-9.2,2.8-13.8c1.8-0.8,3.5-1.9,5-3.1
			c1.5,0.9,2.8,2.1,4,3.4c2.5,2.6,4.9,5,8.4,6.1C58.6,31.4,59.2,29.1,57.8,28.7z"/>
	</g>
</g>
</svg>
